<?xml version="1.0" encoding="utf-8"?>
<!-- Generator: Adobe Illustrator 16.0.0, SVG Export Plug-In . SVG Version: 6.00 Build 0)  -->
<!DOCTYPE svg PUBLIC "-//W3C//DTD SVG 1.1//EN" "http://www.w3.org/Graphics/SVG/1.1/DTD/svg11.dtd">
<svg version="1.1"
	 id="svg2" inkscape:output_extension="org.inkscape.output.svg.inkscape" sodipodi:docname="Eiffelturm-outline.svg" inkscape:version="0.46" sodipodi:version="0.32" xmlns:dc="http://purl.org/dc/elements/1.1/" xmlns:cc="http://creativecommons.org/ns#" xmlns:rdf="http://www.w3.org/1999/02/22-rdf-syntax-ns#" xmlns:svg="http://www.w3.org/2000/svg" xmlns:sodipodi="http://sodipodi.sourceforge.net/DTD/sodipodi-0.dtd" xmlns:inkscape="http://www.inkscape.org/namespaces/inkscape"
	 xmlns="http://www.w3.org/2000/svg" xmlns:xlink="http://www.w3.org/1999/xlink" x="0px" y="0px" width="681px"
	 height="681px" viewBox="0 0 681 681" enable-background="new 0 0 681 681" xml:space="preserve">
<defs>
	
	
		<inkscape:perspective  inkscape:persp3d-origin="372.04724 : 350.78739 : 1" id="perspective10" inkscape:vp_z="744.09448 : 526.18109 : 1" inkscape:vp_y="0 : 1000 : 0" inkscape:vp_x="0 : 526.18109 : 1" sodipodi:type="inkscape:persp3d">
		</inkscape:perspective>
	
		<inkscape:perspective  inkscape:persp3d-origin="372.04724 : 350.78739 : 1" id="perspective2447" inkscape:vp_z="744.09448 : 526.18109 : 1" inkscape:vp_y="0 : 1000 : 0" inkscape:vp_x="0 : 526.18109 : 1" sodipodi:type="inkscape:persp3d">
		</inkscape:perspective>
</defs>
<sodipodi:namedview  showguides="true" showgrid="false" inkscape:cy="250.15166" inkscape:cx="372.04724" inkscape:zoom="0.86947252" borderopacity="1.0" bordercolor="#666666" pagecolor="#ffffff" id="base" inkscape:window-y="0" inkscape:window-x="0" inkscape:window-height="753" inkscape:window-width="1366" inkscape:guide-bbox="true" inkscape:current-layer="layer1" inkscape:document-units="px" inkscape:pageshadow="2" inkscape:pageopacity="0.0">
	</sodipodi:namedview>
<g id="layer1" transform="translate(-187.13499,-312.34738)" inkscape:label="Ebene 1" inkscape:groupmode="layer">
	<g id="g3338" transform="matrix(1.0190278,0,0,1.0190278,-6.168862,230.95158)">
		<path id="path3326" fill="none" stroke="#000000" stroke-width="2.4738" d="M189.729,742.278l49.63,0.693l-0.035,2.466
			l-49.63-0.693L189.729,742.278z"/>
		<path id="path3324" fill="none" stroke="#000000" stroke-width="2.4738" d="M192.062,733.775l47.571,0.664l-0.091,6.506
			l-47.571-0.665L192.062,733.775z"/>
		
			<path id="path3322" sodipodi:nodetypes="ccccccccccccccccccccccccccccccccccccccccccccccccccccccccc" fill="none" stroke="#000000" stroke-width="2.4738" d="
			M196.621,733.785l48.745-89.546l3.005-11.345l-3.66-0.051l-1.117-7.336l2.869-1.586l0.119-8.539l-1.999-2.468l11.391-0.248
			l8.97-30.781l6.433-23.904l4.762-20.673l4.751-19.86l-6.771-10.262l4.546-5.223l3.665-0.356l6.243-39.36l3.989-23.531
			l1.092-19.912l1.531-22.345l0.685-19.917l1.498-19.906l1.097-20.318l2.376-53.647l2.251-44.702l1.534-51.626l-3.53-9.403
			l-3.207-3.298l0.886-5.275l2.446-0.372l0.107-7.725l-2.021-0.842l0.034-2.439l3.281-1.988l0.034-2.439l-2.846-0.04l2.502-4.439
			l4.98-7.25l3.711-3.609l0.859-3.241l1.632-0.384l-0.768-3.264l-2.033-0.029l0.045-3.253l2.033,0.028l-0.36-3.258l-1.22-0.017
			l-0.338-4.885l1.219,0.017l0.458-3.654l-1.626-0.023l0.457-3.654l1.22,0.017l1.254-2.423l0.408-29.274l0.814,0.011l0,0"/>
		<path id="path3320" fill="none" stroke="#000000" stroke-width="2.4738" d="M238.001,734.824l2.587-10.538l5.078-14.162
			l7.5-12.909l11.956-11.626l11.492-7.566l8.607-4.76l10.622-3.512l9.786-1.897l5.622-0.493l4.101-0.077"/>
		<path id="path3318" fill="none" stroke="#000000" stroke-width="2.4738" d="M315.353,612.277l-29.28-0.003l2.604-11.757
			l3.915-18.246l4.395-23.525l3.061-20.019l15.569-0.066"/>
		<path id="path3316" fill="none" stroke="#000000" stroke-width="2.4738" d="M440.402,742.462l-49.63,0.693l0.034,2.466
			l49.631-0.693L440.402,742.462z"/>
		<path id="path3314" fill="none" stroke="#000000" stroke-width="2.4738" d="M438.045,733.721l-47.571,0.664l0.091,6.506
			l47.571-0.665L438.045,733.721z"/>
		
			<path id="path3312" sodipodi:nodetypes="ccccccccccccccccccccccccccccccccccccccccccccccccccccccccc" fill="none" stroke="#000000" stroke-width="2.4738" d="
			M432.911,734.019l-48.17-89.834l-3.005-11.346l3.66-0.051l1.117-7.336l-2.868-1.586l-0.12-8.539l1.999-2.468l-11.391-0.248
			l-8.97-30.781l-6.433-23.904l-4.762-20.673l-4.751-19.86l6.771-10.262l-4.546-5.223l-3.665-0.356l-6.243-39.36l-3.989-23.531
			l-1.092-19.911l-1.531-22.346l-0.685-19.917l-1.498-19.905l-1.097-20.318l-2.376-53.647l-2.251-44.702l-1.534-51.626l3.53-9.403
			l3.207-3.298l-0.886-5.274l-2.446-0.373l-0.107-7.725l2.021-0.841l-0.034-2.44l-3.281-1.988l-0.035-2.439l2.846-0.04l-2.502-4.439
			l-4.98-7.25l-3.711-3.608l-0.859-3.242l-1.632-0.384l0.768-3.264l2.033-0.029l-0.045-3.253l-2.033,0.028l0.361-3.258l1.219-0.017
			l0.339-4.885l-1.22,0.017l-0.458-3.654l1.626-0.023l-0.457-3.653l-1.22,0.017l-1.254-2.423l-0.408-29.274l-0.814,0.011l0,0"/>
		<path id="path3310" fill="none" stroke="#000000" stroke-width="2.4738" d="M392.105,734.769l-2.587-10.538l-5.078-14.162
			l-7.5-12.909l-11.956-11.626l-11.492-7.566l-8.607-4.76l-10.622-3.512l-9.786-1.897l-5.335-0.493l-3.789,0.211"/>
		<path id="rect2453" fill="none" stroke="#000000" stroke-width="2.4738" d="M314.754,612.222l29.281-0.003l-2.605-11.757
			l-3.915-18.246l-4.395-23.525l-2.486-20.019l-15.281-0.066"/>
		<path id="path3328" stroke="#000000" stroke-width="0.7188" d="M192.925,734.699c-0.116,1.475-0.639,3.663,0.311,4.816
			c14.977,0.263,29.998,0.508,44.993,0.63c1.256-0.875,0.48-3.166,0.517-4.546c-1.372-0.842-3.455-0.195-5.099-0.448
			c-13.419-0.245-26.837-0.449-40.255-0.656l-0.263,0.116L192.925,734.699z"/>
		<path id="path3330" stroke="#000000" stroke-width="0.7188" d="M421.026,734.682c-9.756,0.112-19.513,0.259-29.265,0.548
			c-1.22,0.941-0.452,3.218-0.49,4.628c1.382,0.828,3.464,0.072,5.117,0.269c13.417-0.31,26.836-0.452,40.256-0.638
			c1.234-0.929,0.46-3.22,0.499-4.628c-1.382-0.831-3.465-0.103-5.117-0.312C428.358,734.593,424.692,734.638,421.026,734.682z"/>
		<path id="path3332" stroke="#000000" stroke-width="0.7188" d="M292.41,444.958c-1.451,6.175-2.165,12.573-3.296,18.843
			c-2.106,12.809-4.072,25.641-6.138,38.457c-1.863,0.359-4.224-0.212-5.211,1.877c-0.769,1.157-2.49,2.244-2.202,3.775
			c1.97,3.213,4.296,6.27,6.012,9.605c-4.906,20.856-9.521,41.762-15.379,62.375c-3.117,11.195-6.406,22.341-9.654,33.498
			c-3.068,0.219-6.236-0.077-9.236,0.585c-0.501,0.782,0.312,1.781,0.072,2.731c0.027,2.588-0.157,5.151-0.342,7.737
			c-1.18,0.612-3.027,1.522-2.336,3.172c0.439,1.409-0.124,3.424,1.001,4.393c1.123,0.15,2.511-0.16,3.501,0.189
			c-1.005,4.333-2.038,8.708-3.447,12.923c-15.8,29.019-31.6,58.038-47.401,87.057c0.232,1.827,3.184,0.579,4.564,0.991
			c11.185,0.106,22.384,0.484,33.561,0.213c1.99-0.062,1.487-2.718,2.106-4.004c1.775-6.881,4.022-13.69,6.911-20.198
			c2.219-4.177,4.611-8.319,7.092-12.355c5.808-5.495,10.979-11.684,17.971-15.724c6.918-4.656,14.246-8.931,22.357-11.093
			c12.062-3.7,25.056-4.61,37.411-1.83c8.706,1.848,17.236,4.976,24.677,9.956c5.39,3.391,10.871,6.834,15.261,11.477
			c2.495,2.602,5.46,4.841,7.636,7.695c3.622,6.292,7.639,12.399,9.723,19.426c1.935,5.376,3.586,10.811,4.831,16.38
			c1.247,1.076,3.351,0.155,4.933,0.431c10.911-0.224,21.855,0.023,32.742-0.61c1.689-0.357,0.057-2.11-0.29-2.964
			c-15.219-28.502-30.517-56.96-45.769-85.444c-1.109-4.155-2.222-8.309-3.306-12.472c1.308-0.256,3.188,0.554,4.088-0.557
			c-0.023-1.909,1.277-4.149,0.171-5.912c-0.789-0.848-2.657-0.764-2.102-2.328c-0.09-3.171,0.39-6.461-0.063-9.56
			c-3.063-0.449-6.268,0.025-9.354-0.539c-7.347-25.057-14.638-50.145-20.261-75.642c-1.585-6.74-3.206-13.47-4.808-20.205
			c1.943-3.446,4.645-6.513,6.254-10.117c-0.851-1.697-2.367-3.134-3.661-4.491c-1.218-0.387-2.774-0.093-3.914-0.613
			c-3.044-18.92-5.967-37.906-9.192-56.813c-1.165-1.181-3.361-0.22-4.933-0.531c-13.371,0-26.741,0-40.111,0l-0.262,0.121
			L292.41,444.958z M315.404,538.011c5.307,0,10.614,0,15.922,0c2.553,24.235,7.589,48.091,12.957,71.837
			c-0.014,1.075,1.538,3.362-0.448,2.969c-18.675,0.22-37.396,0.179-56.087,0.013c-0.998-0.165-3.161,0.483-2.302-1.187
			c5.522-24.353,10.371-48.819,13.948-73.515C304.532,537.856,310.115,538.088,315.404,538.011z"/>
		<path id="path3334" stroke="#000000" stroke-width="0.7188" d="M314.963,134.165c-1.581-0.172-3.084,0.884-3.027,2.57
			c-1.22,2.373-3.588,3.933-5.005,6.227c-1.784,2.563-4.041,4.975-5.203,7.889c0.018,1.342,2.31,0.332,1.693,1.778
			c-0.132,1.438,0.432,3.289-1.468,3.676c-0.848,0.513-2.695,1.544-1.537,2.651c1.147,0.551,2.078,0.899,1.599,2.453
			c0,2.411,0,4.822,0,7.233c-1.748,0.061-3.3,0.719-2.983,2.767c-0.762,1.723,0.312,3.005,1.593,4.044
			c2.36,2.727,2.901,6.513,4.381,9.724c0.796,2.695,0.005,5.654,0.147,8.458c-0.82,31.152-2.127,62.259-3.715,93.378
			c-1.368,28.846-2.389,57.712-4.51,86.516c-0.768,14.089-1.23,28.179-2.289,42.268c-0.747,9.334-0.708,18.749-2.11,28.02
			c0.608,1.345,2.569,0.528,3.729,0.852c13.489,0.152,26.998,0.348,40.479,0.037c1.782-0.212,0.407-2.363,0.486-3.468
			c-1.192-13.357-1.73-26.767-2.698-40.143c-0.691-14.622-1.267-29.259-2.436-43.874c-2.023-34.856-3.248-69.753-5.063-104.62
			c-1.01-22.149-1.629-44.336-2.285-66.511c1.481-3.375,2.199-7.165,4.305-10.225c1.025-1.289,3.019-2.33,2.107-4.248
			c-0.033-1.438-0.788-3.208-2.512-2.985c-0.85-0.032-0.361-1.538-0.589-2.129c-0.069-2.254-0.043-4.55-0.049-6.82
			c1.148-0.048,2.665-1.34,1.501-2.408c-0.759-1.109-3.141-1.149-2.642-2.884c-0.031-0.876-0.065-1.764-0.234-2.624
			c2.131,0.579,2.271-1.262,1.003-2.502c-2.606-4.354-5.821-8.291-9.153-12.09c-0.551-1.129-0.686-2.834-2.3-2.956
			C315.776,134.153,315.368,134.145,314.963,134.165z"/>
		<path id="path3336" stroke="#000000" stroke-width="0.7188" d="M314.729,109.266c-0.947,1.109-1.057,3.135-2.633,3.549
			c-0.87,0.847,0.297,2.025,1.285,1.77c-0.4,1.65-0.195,3.616-0.844,5.113c-1.043,0.64-1.034,2.559-0.189,3.36
			c1.279-0.007,0.753,1.67,1.017,2.532c0.2,1.284,0.439,2.411-1.134,2.23c-1.239,0.261-0.594,1.947,0.53,1.698
			c1.049-0.151,0.646,1.572,1.045,2.185c0.275,0.815,0.327,2.982,1.624,2.272c0.913-1.255,0.734-3.223,1.491-4.438
			c1.055,0.35,2.312-1.121,0.989-1.671c-1.645,0.142-1.449-0.898-1.161-2.257c0.296-0.786-0.075-2.235,0.587-2.712
			c1.138-0.294,0.909-1.753,1.06-2.633c-0.216-0.702-1.304-0.402-1.088-1.374c-0.132-1.401-0.569-3.043-0.404-4.313
			c1.575,0.319,1.831-2.544,0.207-2.336C316.214,111.366,316.19,109.083,314.729,109.266z"/>
	</g>
</g>
</svg>
